<svg width="130" height="36" viewBox="0 0 130 36" fill="none" xmlns="http://www.w3.org/2000/svg">
<path d="M18.5398 3.41431H24.3822V32.215H18.5398V30.6515C17.6346 31.3372 16.6472 31.8584 15.5775 32.215C14.5351 32.599 13.4517 32.791 12.3271 32.791C10.1876 32.791 8.33615 32.3247 6.77268 31.3921C5.23665 30.4595 4.05719 29.184 3.23431 27.5657C2.41144 25.92 2 24.0548 2 21.9702C2 19.8855 2.41144 18.0204 3.23431 16.3746C4.05719 14.7014 5.23665 13.3985 6.77268 12.4659C8.33615 11.5334 10.1876 11.0671 12.3271 11.0671C13.4243 11.0671 14.5077 11.2591 15.5775 11.6431C16.6472 11.9996 17.6346 12.5208 18.5398 13.2065V3.41431ZM13.1088 27.1954C14.6449 27.1954 15.934 26.7017 16.9763 25.7143C18.0187 24.7268 18.5398 23.4513 18.5398 21.8879C18.5398 20.3793 18.0187 19.145 16.9763 18.1849C15.934 17.2249 14.6449 16.7449 13.1088 16.7449C11.5728 16.7449 10.311 17.2249 9.3236 18.1849C8.33615 19.145 7.84242 20.4067 7.84242 21.9702C7.84242 23.5336 8.33615 24.7954 9.3236 25.7554C10.311 26.7154 11.5728 27.1954 13.1088 27.1954Z" fill="#27A185"/>
<path d="M42.319 11.6431H48.1614V32.215H42.319V30.6515C41.4138 31.3372 40.4127 31.8584 39.3155 32.215C38.2458 32.599 37.1623 32.791 36.0651 32.791C33.9257 32.791 32.0742 32.3247 30.5107 31.3921C28.9747 30.4595 27.7952 29.184 26.9724 27.5657C26.1495 25.92 25.738 24.0548 25.738 21.9702C25.738 19.8855 26.1495 18.0204 26.9724 16.3746C27.7952 14.7014 28.9747 13.3985 30.5107 12.4659C32.0742 11.5334 33.9257 11.0671 36.0651 11.0671C37.1897 11.0671 38.2869 11.2591 39.3566 11.6431C40.4264 12.0271 41.4138 12.5619 42.319 13.2477V11.6431ZM36.8469 27.1954C38.3829 27.1954 39.6721 26.7017 40.7144 25.7143C41.7567 24.7268 42.2779 23.4513 42.2779 21.8879C42.2779 20.3793 41.7567 19.145 40.7144 18.1849C39.6721 17.2249 38.3829 16.7449 36.8469 16.7449C35.3108 16.7449 34.0491 17.2249 33.0616 18.1849C32.0742 19.145 31.5805 20.4067 31.5805 21.9702C31.5805 23.5336 32.0742 24.7954 33.0616 25.7554C34.0491 26.7154 35.3108 27.1954 36.8469 27.1954Z" fill="#27A185"/>
<path d="M64.0629 11.2316L63.6514 16.786C63.4594 16.7038 63.144 16.6626 62.7051 16.6626C61.0319 16.6626 59.6605 17.1426 58.5907 18.1026C57.5484 19.0352 57.0273 20.2696 57.0273 21.8056V32.215H51.1437V11.6431H57.0273V14.9757C57.521 13.906 58.3164 13.0145 59.4136 12.3014C60.5108 11.5882 61.8411 11.2316 63.4046 11.2316H64.0629Z" fill="#27A185"/>
<path d="M68.5646 8.84529C67.4674 8.84529 66.6034 8.55728 65.9725 7.98127C65.3691 7.37783 65.0674 6.56867 65.0674 5.55379C65.0674 4.51147 65.3691 3.6886 65.9725 3.08516C66.6034 2.48171 67.4674 2.17999 68.5646 2.17999C69.6343 2.17999 70.4846 2.48171 71.1155 3.08516C71.7464 3.6886 72.0618 4.51147 72.0618 5.55379C72.0618 6.56867 71.7464 7.37783 71.1155 7.98127C70.4846 8.55728 69.6343 8.84529 68.5646 8.84529ZM65.6022 32.215V11.6431H71.4858V32.215H65.6022Z" fill="#27A185"/>
<path d="M89.988 11.6431H95.8304V32.215H89.988V30.6515C89.0828 31.3372 88.0816 31.8584 86.9845 32.215C85.9147 32.599 84.8313 32.791 83.7341 32.791C81.5946 32.791 79.7432 32.3247 78.1797 31.3921C76.6437 30.4595 75.4642 29.184 74.6413 27.5657C73.8185 25.92 73.407 24.0548 73.407 21.9702C73.407 19.8855 73.8185 18.0204 74.6413 16.3746C75.4642 14.7014 76.6437 13.3985 78.1797 12.4659C79.7432 11.5334 81.5946 11.0671 83.7341 11.0671C84.8587 11.0671 85.9559 11.2591 87.0256 11.6431C88.0954 12.0271 89.0828 12.5619 89.988 13.2477V11.6431ZM84.5158 27.1954C86.0519 27.1954 87.3411 26.7017 88.3834 25.7143C89.4257 24.7268 89.9468 23.4513 89.9468 21.8879C89.9468 20.3793 89.4257 19.145 88.3834 18.1849C87.3411 17.2249 86.0519 16.7449 84.5158 16.7449C82.9798 16.7449 81.7181 17.2249 80.7306 18.1849C79.7432 19.145 79.2494 20.4067 79.2494 21.9702C79.2494 23.5336 79.7432 24.7954 80.7306 25.7554C81.7181 26.7154 82.9798 27.1954 84.5158 27.1954Z" fill="#27A185"/>
<path d="M109.675 11.0671C110.882 11.0671 112.102 11.3276 113.336 11.8488C114.571 12.3699 115.627 13.2888 116.505 14.6054C117.382 15.922 117.821 17.6912 117.821 19.913V32.215H111.938V19.913C111.938 18.5964 111.567 17.6501 110.827 17.0741C110.114 16.498 109.249 16.21 108.235 16.21C107.22 16.21 106.369 16.5666 105.684 17.2798C105.025 17.9929 104.696 19.1312 104.696 20.6947V32.215H98.8127V11.6431H104.696V13.042C106.26 11.7254 107.919 11.0671 109.675 11.0671Z" fill="#27A185"/>
<path d="M120.298 29.5818C120.298 28.5669 120.558 27.7989 121.08 27.2777C121.628 26.7291 122.396 26.4548 123.384 26.4548C124.371 26.4548 125.125 26.7291 125.646 27.2777C126.195 27.7989 126.469 28.5669 126.469 29.5818C126.469 30.5967 126.195 31.3784 125.646 31.927C125.125 32.4481 124.371 32.7087 123.384 32.7087C122.396 32.7087 121.628 32.4481 121.08 31.927C120.558 31.3784 120.298 30.5967 120.298 29.5818Z" fill="#27A185"/>
<circle cx="123.143" cy="29.6435" r="3.85723" fill="#ECAC45"/>
<circle cx="68.4986" cy="5.85723" r="3.85723" fill="#ECAC45"/>
</svg>
